# xmcd CD database file
#
# Track frame offsets:
#	150
#	14596
#	39961
#	60978
#	79499
#	95664
#	122430
#	137530
#	153587
#	171236
#	190708
#	212631
#
# Disc length: 3147 seconds
#
# Revision: 0
# Processed by: cddbd v1.5.2PL0 Copyright (c) Steve Scherf et al.
# Submitted via: CDex 1.70beta2
#
DISCID=9a0c490c
DTITLE=Ella Rabeson - Live Noga Hilton
DYEAR=1998
DGENRE=Jazz
TTITLE0=You came along
TTITLE1=Fly me to the moon
TTITLE2=Cheek to cheek
TTITLE3=Get out of town
TTITLE4=Taking a chance on love
TTITLE5=My funny valentine
TTITLE6=A fine romance
TTITLE7=Shiny stockings
TTITLE8=All of me
TTITLE9=Night and day
TTITLE10=Honey suckle rose
TTITLE11=Dont get around
EXTD=YEAR: 1998
EXTT0=
EXTT1=
EXTT2=
EXTT3=
EXTT4=
EXTT5=
EXTT6=
EXTT7=
EXTT8=
EXTT9=
EXTT10=
EXTT11=
PLAYORDER=
